<svg width="99" height="99" viewBox="0 0 99 99" fill="none" xmlns="http://www.w3.org/2000/svg">
<path d="M56 47.5L20 71.5L49.5 84.5L82.5 60L56 47.5Z" fill="#BB86FC"/>
<path d="M18.5083 36.0491L52.5548 14.77L53.483 44.4719L18.9727 67.1636L18.5083 36.0491Z" stroke="#BB86FC" stroke-width="2"/>
<path d="M24 41.5L34.6207 35.5L35 43.5L41.7826 40L41.7174 38.5L41.5 33.5L47.5 30V35.5L41.7174 38.5L41.7826 40V45.5L35 49.5V43.5L24.5 50L24 41.5Z" fill="#BB86FC"/>
<path fill-rule="evenodd" clip-rule="evenodd" d="M92 49.5C92 72.9721 72.9721 92 49.5 92C26.0279 92 7 72.9721 7 49.5C7 26.0279 26.0279 7 49.5 7C59.6142 7 68.9033 10.5331 76.2003 16.4324L84.2568 14.2549C75.3191 5.44026 63.0449 0 49.5 0C22.1619 0 0 22.1619 0 49.5C0 76.8381 22.1619 99 49.5 99C76.8381 99 99 76.8381 99 49.5C99 40.6173 96.6603 32.281 92.5635 25.0739L88.6668 32.9728C90.8132 38.0532 92 43.638 92 49.5Z" fill="#BB86FC"/>
<path d="M65 22L95 14L81 42L77 29L65 22Z" fill="#BB86FC"/>
</svg>
